# xmcd
#
# Track frame offsets:
#	150
#	11837
#	25552
#	35642
#	46060
#	55027
#	63980
#	78762
#	90712
#	100165
#	112142
#	127222
#	138430
#	149827
#	161547
#	170865
#	182217
#	193592
#	201850
#	213320
#	225392
#
# Disc length: 3160
#
# Revision: 1
# Processed by: cddbd v1.5.1PL0 Copyright (c) Steve Scherf et al.
# Submitted via: FreeRIP 2.53 
# Normalized: r0:TDELIM( - )
#
DISCID=2d0c5615
DTITLE=Various Artist - Sentimental Journey
DYEAR=1943
DGENRE=Swing
TTITLE0=Dinning Sisters - The Rythm Is Red, White And Blue
TTITLE1=Bob Crosby Orchestra with Dave Street - I Left My Heart At The Stage Door Canteen
TTITLE2=Ted Fio Rito Orchestra With Jimmy Baxter - This Is The Army Mr. Jones
TTITLE3=Four Tones - Hit That Jive, Jack
TTITLE4=Don Allen Orchestra - Remember Pearl Harbour
TTITLE5=Song Makers - Coming In On A Wing And Prayer
TTITLE6=Ted Fio Rito Orchestra With Lynn Stevens - When The Lights Go On Again
TTITLE7=John Reichman Orchestra - Silver Wings In The Moonlight
TTITLE8=Four Vagabonds - Rosie The Riveter
TTITLE9=Spiky Jones And City Slickers with Carl Greyson - Der Fuehrer's Face
TTITLE10=Vaughn Monroe Orchestra - No Love, No Nothin
TTITLE11=Bob Crosby Orchestra - Vultee Special
TTITLE12=Jack Teagarden Orchestra - Barracks's Blues
TTITLE13=Paul Baron Orchestra - Up And At 'Em Yanks'
TTITLE14=Spiky Jones And City Slickers - Little Bo Peep Has Lost Her Jeep
TTITLE15=Novelty Aces - Stars And Stripes On Iwo Jima
TTITLE16=Henry Busse Orchestra - Canteen Bounce
TTITLE17=Emil Petty Orchestra - Bell Bottom Trowsers
TTITLE18=Victory Military Band - Heroes Of The Air
TTITLE19=Spiky Jones And City Slickers - Sailor With The Navy Blue Eyes
TTITLE20=Doris Day - Sentimental Jouney
EXTD=
EXTT0=
EXTT1=
EXTT2=
EXTT3=
EXTT4=
EXTT5=
EXTT6=
EXTT7=
EXTT8=
EXTT9=
EXTT10=
EXTT11=
EXTT12=
EXTT13=
EXTT14=
EXTT15=
EXTT16=
EXTT17=
EXTT18=
EXTT19=
EXTT20=
PLAYORDER=
